<mxfile host="www.draw.io" modified="2020-02-07T03:45:54.566Z" agent="Mozilla/5.0 (Windows NT 10.0; Win64; x64) AppleWebKit/537.36 (KHTML, like Gecko) Chrome/78.0.3904.108 Safari/537.36" etag="55bM5yFNsnOnmNLR6NjB" version="12.6.5" type="github">
  <diagram id="_qXGrUiXCGl5oymRRd8B" name="Page-1">
    <mxGraphModel dx="1646" dy="745" grid="1" gridSize="10" guides="1" tooltips="1" connect="1" arrows="1" fold="1" page="1" pageScale="1" pageWidth="827" pageHeight="1169" math="0" shadow="0">
      <root>
        <mxCell id="0"/>
        <mxCell id="1" parent="0"/>
        <mxCell id="PT7UJvZRRJ9yC9iflmCO-1" value="外部渠道" style="ellipse;shape=cloud;whiteSpace=wrap;html=1;" vertex="1" parent="1">
          <mxGeometry x="550" y="200" width="120" height="80" as="geometry"/>
        </mxCell>
        <mxCell id="PT7UJvZRRJ9yC9iflmCO-2" value="内部微服务1" style="shape=process;whiteSpace=wrap;html=1;backgroundOutline=1;" vertex="1" parent="1">
          <mxGeometry x="110" y="160" width="120" height="60" as="geometry"/>
        </mxCell>
        <mxCell id="PT7UJvZRRJ9yC9iflmCO-3" value="DB" style="shape=cylinder;whiteSpace=wrap;html=1;boundedLbl=1;backgroundOutline=1;" vertex="1" parent="1">
          <mxGeometry x="570" y="310" width="60" height="80" as="geometry"/>
        </mxCell>
        <mxCell id="PT7UJvZRRJ9yC9iflmCO-4" value="文件服务器" style="shape=tape;whiteSpace=wrap;html=1;" vertex="1" parent="1">
          <mxGeometry x="520" y="40" width="120" height="100" as="geometry"/>
        </mxCell>
        <mxCell id="PT7UJvZRRJ9yC9iflmCO-7" style="edgeStyle=orthogonalEdgeStyle;rounded=0;orthogonalLoop=1;jettySize=auto;html=1;exitX=1;exitY=0.5;exitDx=0;exitDy=0;" edge="1" parent="1" source="PT7UJvZRRJ9yC9iflmCO-6" target="PT7UJvZRRJ9yC9iflmCO-1">
          <mxGeometry relative="1" as="geometry"/>
        </mxCell>
        <mxCell id="PT7UJvZRRJ9yC9iflmCO-8" style="edgeStyle=orthogonalEdgeStyle;rounded=0;orthogonalLoop=1;jettySize=auto;html=1;exitX=1;exitY=1;exitDx=0;exitDy=0;entryX=0;entryY=0.5;entryDx=0;entryDy=0;" edge="1" parent="1" source="PT7UJvZRRJ9yC9iflmCO-6" target="PT7UJvZRRJ9yC9iflmCO-3">
          <mxGeometry relative="1" as="geometry"/>
        </mxCell>
        <mxCell id="PT7UJvZRRJ9yC9iflmCO-9" style="edgeStyle=orthogonalEdgeStyle;rounded=0;orthogonalLoop=1;jettySize=auto;html=1;exitX=0;exitY=0.5;exitDx=0;exitDy=0;" edge="1" parent="1" source="PT7UJvZRRJ9yC9iflmCO-6" target="PT7UJvZRRJ9yC9iflmCO-2">
          <mxGeometry relative="1" as="geometry"/>
        </mxCell>
        <mxCell id="PT7UJvZRRJ9yC9iflmCO-11" style="edgeStyle=orthogonalEdgeStyle;rounded=0;orthogonalLoop=1;jettySize=auto;html=1;exitX=0;exitY=1;exitDx=0;exitDy=0;entryX=1;entryY=0.5;entryDx=0;entryDy=0;" edge="1" parent="1" source="PT7UJvZRRJ9yC9iflmCO-6" target="PT7UJvZRRJ9yC9iflmCO-10">
          <mxGeometry relative="1" as="geometry"/>
        </mxCell>
        <mxCell id="PT7UJvZRRJ9yC9iflmCO-12" style="edgeStyle=orthogonalEdgeStyle;rounded=0;orthogonalLoop=1;jettySize=auto;html=1;exitX=0.5;exitY=0;exitDx=0;exitDy=0;entryX=0;entryY=0.5;entryDx=0;entryDy=0;entryPerimeter=0;" edge="1" parent="1" source="PT7UJvZRRJ9yC9iflmCO-6" target="PT7UJvZRRJ9yC9iflmCO-4">
          <mxGeometry relative="1" as="geometry"/>
        </mxCell>
        <mxCell id="PT7UJvZRRJ9yC9iflmCO-14" style="edgeStyle=orthogonalEdgeStyle;rounded=0;orthogonalLoop=1;jettySize=auto;html=1;exitX=0.5;exitY=1;exitDx=0;exitDy=0;" edge="1" parent="1" source="PT7UJvZRRJ9yC9iflmCO-6" target="PT7UJvZRRJ9yC9iflmCO-13">
          <mxGeometry relative="1" as="geometry"/>
        </mxCell>
        <mxCell id="PT7UJvZRRJ9yC9iflmCO-18" value="&lt;h2&gt;qps/错误率/99线&lt;/h2&gt;" style="text;html=1;align=center;verticalAlign=middle;resizable=0;points=[];labelBackgroundColor=#ffffff;" vertex="1" connectable="0" parent="PT7UJvZRRJ9yC9iflmCO-14">
          <mxGeometry x="-0.2222" y="3" relative="1" as="geometry">
            <mxPoint as="offset"/>
          </mxGeometry>
        </mxCell>
        <mxCell id="PT7UJvZRRJ9yC9iflmCO-16" style="edgeStyle=orthogonalEdgeStyle;rounded=0;orthogonalLoop=1;jettySize=auto;html=1;exitX=0;exitY=0;exitDx=0;exitDy=0;" edge="1" parent="1" source="PT7UJvZRRJ9yC9iflmCO-6" target="PT7UJvZRRJ9yC9iflmCO-15">
          <mxGeometry relative="1" as="geometry"/>
        </mxCell>
        <mxCell id="PT7UJvZRRJ9yC9iflmCO-6" value="本服务" style="ellipse;whiteSpace=wrap;html=1;" vertex="1" parent="1">
          <mxGeometry x="310" y="200" width="120" height="80" as="geometry"/>
        </mxCell>
        <mxCell id="PT7UJvZRRJ9yC9iflmCO-10" value="内部微服务n" style="shape=process;whiteSpace=wrap;html=1;backgroundOutline=1;" vertex="1" parent="1">
          <mxGeometry x="110" y="280" width="120" height="60" as="geometry"/>
        </mxCell>
        <mxCell id="PT7UJvZRRJ9yC9iflmCO-13" value="队列服务" style="shape=cylinder;whiteSpace=wrap;html=1;boundedLbl=1;backgroundOutline=1;" vertex="1" parent="1">
          <mxGeometry x="340" y="370" width="60" height="80" as="geometry"/>
        </mxCell>
        <mxCell id="PT7UJvZRRJ9yC9iflmCO-15" value="外部微服务n" style="shape=process;whiteSpace=wrap;html=1;backgroundOutline=1;" vertex="1" parent="1">
          <mxGeometry x="190" y="40" width="120" height="60" as="geometry"/>
        </mxCell>
        <mxCell id="PT7UJvZRRJ9yC9iflmCO-17" value="&lt;h1&gt;说明&lt;/h1&gt;&lt;p&gt;1.内部微服务：同一注册中心的微服务&lt;/p&gt;&lt;p&gt;2.外部微服务：公司范围内的微服务&lt;/p&gt;&lt;p&gt;3.外部渠道：其他公司提供的Sass,Pass服务&lt;/p&gt;" style="text;html=1;strokeColor=none;fillColor=none;spacing=5;spacingTop=-20;whiteSpace=wrap;overflow=hidden;rounded=0;" vertex="1" parent="1">
          <mxGeometry x="130" y="510" width="500" height="140" as="geometry"/>
        </mxCell>
      </root>
    </mxGraphModel>
  </diagram>
</mxfile>
